# xmcd CD database file
#
# Track frame offsets:
#	150
#	15501
#	32737
#	49193
#	65753
#	81564
#	98281
#	110014
#	124338
#	140149
#	153071
#	170362
#	188746
#
# Disc length: 2839 seconds
#
# Revision: 0
# Processed by: cddbd v1.5.2PL0 Copyright (c) Steve Scherf et al.
# Submitted via: CDex 1.81
#
DISCID=ac0b150d
DTITLE=Kip Moore - Slow Heart
DYEAR=1900
DGENRE=Country
TTITLE0=Plead The Fifth
TTITLE1=Just Another Girl
TTITLE2=I've Been Around
TTITLE3=Fast Women
TTITLE4=Bittersweet Company
TTITLE5=Sunburn
TTITLE6=More Girls Like You
TTITLE7=The Bull
TTITLE8=Blonde
TTITLE9=Good Thing
TTITLE10=Last Shot
TTITLE11=Try Again
TTITLE12=Guitar Man
EXTD=
EXTT0=
EXTT1=
EXTT2=
EXTT3=
EXTT4=
EXTT5=
EXTT6=
EXTT7=
EXTT8=
EXTT9=
EXTT10=
EXTT11=
EXTT12=
PLAYORDER=
